<?xml version="1.0" encoding="UTF-8" standalone="no"?>
<!DOCTYPE svg PUBLIC "-//W3C//DTD SVG 1.1//EN"
 "http://www.w3.org/Graphics/SVG/1.1/DTD/svg11.dtd">
<!-- Generated by graphviz version 2.30.1 (20130318.1259)
 -->
<!-- Title: g Pages: 1 -->
<svg width="333pt" height="492pt"
 viewBox="0.00 0.00 333.00 492.00" xmlns="http://www.w3.org/2000/svg" xmlns:xlink="http://www.w3.org/1999/xlink">
<g id="graph0" class="graph" transform="scale(1 1) rotate(0) translate(4 488)">
<title>g</title>
<polygon fill="white" stroke="white" points="-4,5 -4,-488 330,-488 330,5 -4,5"/>
<!-- N0 -->
<g id="node1" class="node"><title>N0</title>
<path fill="#ffffff" stroke="#2e3436" stroke-width="1.5" d="M170,-444.694C170,-444.694 200,-444.694 200,-444.694 206,-444.694 212,-450.694 212,-456.694 212,-456.694 212,-471.306 212,-471.306 212,-477.306 206,-483.306 200,-483.306 200,-483.306 170,-483.306 170,-483.306 164,-483.306 158,-477.306 158,-471.306 158,-471.306 158,-456.694 158,-456.694 158,-450.694 164,-444.694 170,-444.694"/>
<text text-anchor="middle" x="184.789" y="-471.306" font-family="FreeSans" font-size="8.00" fill="#1c2021">Node[0]</text>
<polyline fill="none" stroke="#2e3436" stroke-width="1.5" points="158,-464 211.578,-464 "/>
<text text-anchor="middle" x="184.789" y="-452" font-family="FreeSans" font-size="8.00" fill="#1c2021"> </text>
</g>
<!-- N11 -->
<g id="node2" class="node"><title>N11</title>
<path fill="#ffffff" stroke="#2e3436" stroke-width="1.5" d="M160.342,-356.694C160.342,-356.694 209.658,-356.694 209.658,-356.694 215.658,-356.694 221.658,-362.694 221.658,-368.694 221.658,-368.694 221.658,-383.306 221.658,-383.306 221.658,-389.306 215.658,-395.306 209.658,-395.306 209.658,-395.306 160.342,-395.306 160.342,-395.306 154.342,-395.306 148.342,-389.306 148.342,-383.306 148.342,-383.306 148.342,-368.694 148.342,-368.694 148.342,-362.694 154.342,-356.694 160.342,-356.694"/>
<text text-anchor="middle" x="185" y="-383.306" font-family="FreeSans" font-size="8.00" fill="#1c2021">Node[11]</text>
<polyline fill="none" stroke="#2e3436" stroke-width="1.5" points="148.342,-376 221.658,-376 "/>
<text text-anchor="start" x="156.342" y="-364" font-family="FreeSans" font-size="8.00" fill="#1c2021">type = &#39;spatial&#39;</text>
</g>
<!-- N0&#45;&gt;N11 -->
<g id="edge1" class="edge"><title>N0&#45;&gt;N11</title>
<path fill="none" stroke="#2e3436" stroke-width="2" d="M185,-444.339C185,-432.198 185,-416.197 185,-402.839"/>
<polygon fill="#2e3436" stroke="#2e3436" points="185,-395.329 188.375,-402.829 185.5,-399.079 185.5,-402.829 185,-402.829 184.5,-402.829 184.5,-399.079 181.625,-402.829 185,-395.329 185,-395.329"/>
<text text-anchor="middle" x="200.699" y="-417.653" font-family="FreeSans" font-size="8.00" fill="#2e3436">SPATIAL</text>
</g>
<!-- N12 -->
<g id="node3" class="node"><title>N12</title>
<path fill="#ffffff" stroke="#2e3436" stroke-width="1.5" d="M56.7129,-223.081C56.7129,-223.081 313.287,-223.081 313.287,-223.081 319.287,-223.081 325.287,-229.081 325.287,-235.081 325.287,-235.081 325.287,-294.919 325.287,-294.919 325.287,-300.919 319.287,-306.919 313.287,-306.919 313.287,-306.919 56.7129,-306.919 56.7129,-306.919 50.7129,-306.919 44.7129,-300.919 44.7129,-294.919 44.7129,-294.919 44.7129,-235.081 44.7129,-235.081 44.7129,-229.081 50.7129,-223.081 56.7129,-223.081"/>
<text text-anchor="middle" x="185" y="-294.919" font-family="FreeSans" font-size="8.00" fill="#1c2021">Node[12]</text>
<polyline fill="none" stroke="#2e3436" stroke-width="1.5" points="44.7129,-287.613 325.287,-287.613 "/>
<text text-anchor="start" x="52.7129" y="-275.613" font-family="FreeSans" font-size="8.00" fill="#1c2021">layer = &#39;geom&#39;</text>
<text text-anchor="start" x="52.7129" y="-264.306" font-family="FreeSans" font-size="8.00" fill="#1c2021">ctime = 1371675223011</text>
<text text-anchor="start" x="52.7129" y="-253" font-family="FreeSans" font-size="8.00" fill="#1c2021">geomencoder = &#39;org.neo4j.gis.spatial.encoders.SimplePointEncoder&#39;</text>
<text text-anchor="start" x="52.7129" y="-241.694" font-family="FreeSans" font-size="8.00" fill="#1c2021">layer_class = &#39;org.neo4j.gis.spatial.EditableLayerImpl&#39;</text>
<text text-anchor="start" x="52.7129" y="-230.388" font-family="FreeSans" font-size="8.00" fill="#1c2021">geomencoder_config = &#39;lon:lat&#39;</text>
</g>
<!-- N11&#45;&gt;N12 -->
<g id="edge2" class="edge"><title>N11&#45;&gt;N12</title>
<path fill="none" stroke="#4e9a06" stroke-width="2" d="M185,-356.51C185,-345.027 185,-329.685 185,-314.898"/>
<polygon fill="#4e9a06" stroke="#4e9a06" points="185,-307.24 188.375,-314.74 185.5,-310.99 185.5,-314.74 185,-314.74 184.5,-314.74 184.5,-310.99 181.625,-314.74 185,-307.24 185,-307.24"/>
<text text-anchor="middle" x="197.082" y="-329.653" font-family="FreeSans" font-size="8.00" fill="#4e9a06">LAYER</text>
</g>
<!-- N13 -->
<g id="node4" class="node"><title>N13</title>
<path fill="#ffffff" stroke="#2e3436" stroke-width="1.5" d="M11.7344,-128.694C11.7344,-128.694 126.266,-128.694 126.266,-128.694 132.266,-128.694 138.266,-134.694 138.266,-140.694 138.266,-140.694 138.266,-155.306 138.266,-155.306 138.266,-161.306 132.266,-167.306 126.266,-167.306 126.266,-167.306 11.7344,-167.306 11.7344,-167.306 5.73438,-167.306 -0.265625,-161.306 -0.265625,-155.306 -0.265625,-155.306 -0.265625,-140.694 -0.265625,-140.694 -0.265625,-134.694 5.73438,-128.694 11.7344,-128.694"/>
<text text-anchor="middle" x="69" y="-155.306" font-family="FreeSans" font-size="8.00" fill="#1c2021">Node[13]</text>
<polyline fill="none" stroke="#2e3436" stroke-width="1.5" points="-0.265625,-148 138.266,-148 "/>
<text text-anchor="start" x="7.73438" y="-136" font-family="FreeSans" font-size="8.00" fill="#1c2021">bbox = [15.2, 60.1, 15.2, 60.1]</text>
</g>
<!-- N12&#45;&gt;N13 -->
<g id="edge3" class="edge"><title>N12&#45;&gt;N13</title>
<path fill="none" stroke="#a40000" stroke-width="2" d="M143.449,-222.807C126.576,-206.08 107.678,-187.345 93.1444,-172.936"/>
<polygon fill="#a40000" stroke="#a40000" points="87.6022,-167.442 95.3046,-170.325 90.6174,-169.727 93.2805,-172.367 92.9284,-172.722 92.5764,-173.077 89.9133,-170.437 90.5523,-175.119 87.6022,-167.442 87.6022,-167.442"/>
<text text-anchor="middle" x="149.197" y="-195.653" font-family="FreeSans" font-size="8.00" fill="#a40000">RTREE_ROOT</text>
</g>
<!-- N14 -->
<g id="node5" class="node"><title>N14</title>
<path fill="#ffffff" stroke="#2e3436" stroke-width="1.5" d="M179.025,-123.041C179.025,-123.041 276.975,-123.041 276.975,-123.041 282.975,-123.041 288.975,-129.041 288.975,-135.041 288.975,-135.041 288.975,-160.959 288.975,-160.959 288.975,-166.959 282.975,-172.959 276.975,-172.959 276.975,-172.959 179.025,-172.959 179.025,-172.959 173.025,-172.959 167.025,-166.959 167.025,-160.959 167.025,-160.959 167.025,-135.041 167.025,-135.041 167.025,-129.041 173.025,-123.041 179.025,-123.041"/>
<text text-anchor="middle" x="228" y="-160.959" font-family="FreeSans" font-size="8.00" fill="#1c2021">Node[14]</text>
<polyline fill="none" stroke="#2e3436" stroke-width="1.5" points="167.025,-153.653 288.975,-153.653 "/>
<text text-anchor="start" x="175.025" y="-141.653" font-family="FreeSans" font-size="8.00" fill="#1c2021">maxNodeReferences = 100</text>
<text text-anchor="start" x="175.025" y="-130.347" font-family="FreeSans" font-size="8.00" fill="#1c2021">totalGeometryCount = 1</text>
</g>
<!-- N12&#45;&gt;N14 -->
<g id="edge4" class="edge"><title>N12&#45;&gt;N14</title>
<path fill="none" stroke="#204a87" stroke-width="2" d="M200.403,-222.807C205.6,-208.907 211.315,-193.621 216.191,-180.584"/>
<polygon fill="#204a87" stroke="#204a87" points="218.953,-173.194 219.488,-181.401 218.108,-176.882 216.795,-180.394 216.327,-180.219 215.858,-180.044 217.172,-176.532 213.165,-179.037 218.953,-173.194 218.953,-173.194"/>
<text text-anchor="middle" x="246.871" y="-195.653" font-family="FreeSans" font-size="8.00" fill="#204a87">RTREE_METADATA</text>
</g>
<!-- N15 -->
<g id="node6" class="node"><title>N15</title>
<path fill="#ffffff" stroke="#2e3436" stroke-width="1.5" d="M11.7344,-0.734375C11.7344,-0.734375 126.266,-0.734375 126.266,-0.734375 132.266,-0.734375 138.266,-6.73438 138.266,-12.7344 138.266,-12.7344 138.266,-61.2656 138.266,-61.2656 138.266,-67.2656 132.266,-73.2656 126.266,-73.2656 126.266,-73.2656 11.7344,-73.2656 11.7344,-73.2656 5.73438,-73.2656 -0.265625,-67.2656 -0.265625,-61.2656 -0.265625,-61.2656 -0.265625,-12.7344 -0.265625,-12.7344 -0.265625,-6.73438 5.73438,-0.734375 11.7344,-0.734375"/>
<text text-anchor="middle" x="69" y="-61.2656" font-family="FreeSans" font-size="8.00" fill="#1c2021">Node[15]</text>
<polyline fill="none" stroke="#2e3436" stroke-width="1.5" points="-0.265625,-53.9594 138.266,-53.9594 "/>
<text text-anchor="start" x="7.73438" y="-41.9594" font-family="FreeSans" font-size="8.00" fill="#1c2021">lat = 60.1</text>
<text text-anchor="start" x="7.73438" y="-30.6531" font-family="FreeSans" font-size="8.00" fill="#1c2021">lon = 15.2</text>
<text text-anchor="start" x="7.73438" y="-19.3469" font-family="FreeSans" font-size="8.00" fill="#1c2021">gtype = 1</text>
<text text-anchor="start" x="7.73438" y="-8.04063" font-family="FreeSans" font-size="8.00" fill="#1c2021">bbox = [15.2, 60.1, 15.2, 60.1]</text>
</g>
<!-- N13&#45;&gt;N15 -->
<g id="edge5" class="edge"><title>N13&#45;&gt;N15</title>
<path fill="none" stroke="#8f5902" stroke-width="2" d="M69,-128.51C69,-115.565 69,-97.7139 69,-81.2844"/>
<polygon fill="#8f5902" stroke="#8f5902" points="69,-73.3609 72.3751,-80.8609 69.5,-77.1109 69.5001,-80.8609 69.0001,-80.8609 68.5001,-80.8609 68.5,-77.1109 65.6251,-80.861 69,-73.3609 69,-73.3609"/>
<text text-anchor="middle" x="104.521" y="-95.6531" font-family="FreeSans" font-size="8.00" fill="#8f5902">RTREE_REFERENCE</text>
</g>
</g>
</svg>
