<?xml version="1.0" encoding="UTF-8" standalone="no"?>
<!DOCTYPE svg PUBLIC "-//W3C//DTD SVG 1.1//EN"
 "http://www.w3.org/Graphics/SVG/1.1/DTD/svg11.dtd">
<!-- Generated by graphviz version 2.30.1 (20130318.1259)
 -->
<!-- Title: g Pages: 1 -->
<svg width="288pt" height="382pt"
 viewBox="0.00 0.00 288.00 382.00" xmlns="http://www.w3.org/2000/svg" xmlns:xlink="http://www.w3.org/1999/xlink">
<g id="graph0" class="graph" transform="scale(1 1) rotate(0) translate(4 378)">
<title>g</title>
<polygon fill="white" stroke="white" points="-4,5 -4,-378 285,-378 285,5 -4,5"/>
<!-- N0 -->
<g id="node1" class="node"><title>N0</title>
<path fill="#ffffff" stroke="#2e3436" stroke-width="1.5" d="M125,-328.694C125,-328.694 155,-328.694 155,-328.694 161,-328.694 167,-334.694 167,-340.694 167,-340.694 167,-355.306 167,-355.306 167,-361.306 161,-367.306 155,-367.306 155,-367.306 125,-367.306 125,-367.306 119,-367.306 113,-361.306 113,-355.306 113,-355.306 113,-340.694 113,-340.694 113,-334.694 119,-328.694 125,-328.694"/>
<text text-anchor="middle" x="139.789" y="-355.306" font-family="FreeSans" font-size="8.00" fill="#1c2021">Node[0]</text>
<polyline fill="none" stroke="#2e3436" stroke-width="1.5" points="113,-348 166.578,-348 "/>
<text text-anchor="middle" x="139.789" y="-336" font-family="FreeSans" font-size="8.00" fill="#1c2021"> </text>
</g>
<!-- N34 -->
<g id="node2" class="node"><title>N34</title>
<path fill="#ffffff" stroke="#2e3436" stroke-width="1.5" d="M115.342,-234.694C115.342,-234.694 164.658,-234.694 164.658,-234.694 170.658,-234.694 176.658,-240.694 176.658,-246.694 176.658,-246.694 176.658,-261.306 176.658,-261.306 176.658,-267.306 170.658,-273.306 164.658,-273.306 164.658,-273.306 115.342,-273.306 115.342,-273.306 109.342,-273.306 103.342,-267.306 103.342,-261.306 103.342,-261.306 103.342,-246.694 103.342,-246.694 103.342,-240.694 109.342,-234.694 115.342,-234.694"/>
<text text-anchor="middle" x="140" y="-261.306" font-family="FreeSans" font-size="8.00" fill="#1c2021">Node[34]</text>
<polyline fill="none" stroke="#2e3436" stroke-width="1.5" points="103.342,-254 176.658,-254 "/>
<text text-anchor="start" x="111.342" y="-242" font-family="FreeSans" font-size="8.00" fill="#1c2021">type = &#39;spatial&#39;</text>
</g>
<!-- N0&#45;&gt;N34 -->
<g id="edge1" class="edge"><title>N0&#45;&gt;N34</title>
<path fill="none" stroke="#2e3436" stroke-width="2" d="M140,-328.382C140,-314.79 140,-296.183 140,-281.107"/>
<polygon fill="#2e3436" stroke="#2e3436" points="140,-273.59 143.375,-281.09 140.5,-277.34 140.5,-281.09 140,-281.09 139.5,-281.09 139.5,-277.34 136.625,-281.09 140,-273.59 140,-273.59"/>
<text text-anchor="middle" x="155.699" y="-295.653" font-family="FreeSans" font-size="8.00" fill="#2e3436">SPATIAL</text>
</g>
<!-- N35 -->
<g id="node3" class="node"><title>N35</title>
<path fill="#ffffff" stroke="#2e3436" stroke-width="1.5" d="M11.7129,-101.081C11.7129,-101.081 268.287,-101.081 268.287,-101.081 274.287,-101.081 280.287,-107.081 280.287,-113.081 280.287,-113.081 280.287,-172.919 280.287,-172.919 280.287,-178.919 274.287,-184.919 268.287,-184.919 268.287,-184.919 11.7129,-184.919 11.7129,-184.919 5.71289,-184.919 -0.287109,-178.919 -0.287109,-172.919 -0.287109,-172.919 -0.287109,-113.081 -0.287109,-113.081 -0.287109,-107.081 5.71289,-101.081 11.7129,-101.081"/>
<text text-anchor="middle" x="140" y="-172.919" font-family="FreeSans" font-size="8.00" fill="#1c2021">Node[35]</text>
<polyline fill="none" stroke="#2e3436" stroke-width="1.5" points="-0.287109,-165.613 280.287,-165.613 "/>
<text text-anchor="start" x="7.71289" y="-153.613" font-family="FreeSans" font-size="8.00" fill="#1c2021">layer = &#39;geom&#39;</text>
<text text-anchor="start" x="7.71289" y="-142.306" font-family="FreeSans" font-size="8.00" fill="#1c2021">ctime = 1371675223910</text>
<text text-anchor="start" x="7.71289" y="-131" font-family="FreeSans" font-size="8.00" fill="#1c2021">geomencoder = &#39;org.neo4j.gis.spatial.encoders.SimplePointEncoder&#39;</text>
<text text-anchor="start" x="7.71289" y="-119.694" font-family="FreeSans" font-size="8.00" fill="#1c2021">layer_class = &#39;org.neo4j.gis.spatial.EditableLayerImpl&#39;</text>
<text text-anchor="start" x="7.71289" y="-108.387" font-family="FreeSans" font-size="8.00" fill="#1c2021">geomencoder_config = &#39;lon:lat&#39;</text>
</g>
<!-- N34&#45;&gt;N35 -->
<g id="edge2" class="edge"><title>N34&#45;&gt;N35</title>
<path fill="none" stroke="#4e9a06" stroke-width="2" d="M140,-234.51C140,-223.027 140,-207.685 140,-192.898"/>
<polygon fill="#4e9a06" stroke="#4e9a06" points="140,-185.24 143.375,-192.74 140.5,-188.99 140.5,-192.74 140,-192.74 139.5,-192.74 139.5,-188.99 136.625,-192.74 140,-185.24 140,-185.24"/>
<text text-anchor="middle" x="152.082" y="-207.653" font-family="FreeSans" font-size="8.00" fill="#4e9a06">LAYER</text>
</g>
<!-- N36 -->
<g id="node4" class="node"><title>N36</title>
<path fill="#ffffff" stroke="#2e3436" stroke-width="1.5" d="M67,-6.69375C67,-6.69375 97,-6.69375 97,-6.69375 103,-6.69375 109,-12.6938 109,-18.6938 109,-18.6938 109,-33.3063 109,-33.3063 109,-39.3062 103,-45.3062 97,-45.3062 97,-45.3062 67,-45.3062 67,-45.3062 61,-45.3062 55,-39.3062 55,-33.3062 55,-33.3062 55,-18.6937 55,-18.6937 55,-12.6938 61,-6.69375 67,-6.69375"/>
<text text-anchor="middle" x="81.8184" y="-33.3063" font-family="FreeSans" font-size="8.00" fill="#1c2021">Node[36]</text>
<polyline fill="none" stroke="#2e3436" stroke-width="1.5" points="55,-26 108.637,-26 "/>
<text text-anchor="middle" x="81.8184" y="-14" font-family="FreeSans" font-size="8.00" fill="#1c2021"> </text>
</g>
<!-- N35&#45;&gt;N36 -->
<g id="edge3" class="edge"><title>N35&#45;&gt;N36</title>
<path fill="none" stroke="#a40000" stroke-width="2" d="M119.224,-100.807C111.087,-84.6717 102.007,-66.6685 94.8519,-52.4823"/>
<polygon fill="#a40000" stroke="#a40000" points="91.3011,-45.4418 97.692,-50.6185 93.4363,-48.5649 95.125,-51.9132 94.6785,-52.1384 94.2321,-52.3635 92.5434,-49.0153 91.6651,-53.6582 91.3011,-45.4418 91.3011,-45.4418"/>
<text text-anchor="middle" x="135.197" y="-73.6531" font-family="FreeSans" font-size="8.00" fill="#a40000">RTREE_ROOT</text>
</g>
<!-- N37 -->
<g id="node5" class="node"><title>N37</title>
<path fill="#ffffff" stroke="#2e3436" stroke-width="1.5" d="M150.025,-1.04062C150.025,-1.04062 247.975,-1.04062 247.975,-1.04062 253.975,-1.04062 259.975,-7.04062 259.975,-13.0406 259.975,-13.0406 259.975,-38.9594 259.975,-38.9594 259.975,-44.9594 253.975,-50.9594 247.975,-50.9594 247.975,-50.9594 150.025,-50.9594 150.025,-50.9594 144.025,-50.9594 138.025,-44.9594 138.025,-38.9594 138.025,-38.9594 138.025,-13.0406 138.025,-13.0406 138.025,-7.04062 144.025,-1.04062 150.025,-1.04062"/>
<text text-anchor="middle" x="199" y="-38.9594" font-family="FreeSans" font-size="8.00" fill="#1c2021">Node[37]</text>
<polyline fill="none" stroke="#2e3436" stroke-width="1.5" points="138.025,-31.6531 259.975,-31.6531 "/>
<text text-anchor="start" x="146.025" y="-19.6531" font-family="FreeSans" font-size="8.00" fill="#1c2021">maxNodeReferences = 100</text>
<text text-anchor="start" x="146.025" y="-8.34688" font-family="FreeSans" font-size="8.00" fill="#1c2021">totalGeometryCount = 0</text>
</g>
<!-- N35&#45;&gt;N37 -->
<g id="edge4" class="edge"><title>N35&#45;&gt;N37</title>
<path fill="none" stroke="#204a87" stroke-width="2" d="M161.134,-100.807C168.332,-86.7774 176.254,-71.3356 182.984,-58.2186"/>
<polygon fill="#204a87" stroke="#204a87" points="186.587,-51.1943 186.167,-59.408 185.32,-54.7591 183.609,-58.0956 183.164,-57.8673 182.719,-57.6391 184.431,-54.3026 180.161,-56.3267 186.587,-51.1943 186.587,-51.1943"/>
<text text-anchor="middle" x="212.871" y="-73.6531" font-family="FreeSans" font-size="8.00" fill="#204a87">RTREE_METADATA</text>
</g>
<!-- N38 -->
<g id="node6" class="node"><title>N38</title>
<path fill="#ffffff" stroke="#2e3436" stroke-width="1.5" d="M208.34,-323.041C208.34,-323.041 241.66,-323.041 241.66,-323.041 247.66,-323.041 253.66,-329.041 253.66,-335.041 253.66,-335.041 253.66,-360.959 253.66,-360.959 253.66,-366.959 247.66,-372.959 241.66,-372.959 241.66,-372.959 208.34,-372.959 208.34,-372.959 202.34,-372.959 196.34,-366.959 196.34,-360.959 196.34,-360.959 196.34,-335.041 196.34,-335.041 196.34,-329.041 202.34,-323.041 208.34,-323.041"/>
<text text-anchor="middle" x="225" y="-360.959" font-family="FreeSans" font-size="8.00" fill="#1c2021">Node[38]</text>
<polyline fill="none" stroke="#2e3436" stroke-width="1.5" points="196.34,-353.653 253.66,-353.653 "/>
<text text-anchor="start" x="204.34" y="-341.653" font-family="FreeSans" font-size="8.00" fill="#1c2021">lat = 60.1</text>
<text text-anchor="start" x="204.34" y="-330.347" font-family="FreeSans" font-size="8.00" fill="#1c2021">lon = 15.2</text>
</g>
</g>
</svg>
