<?xml version="1.0" encoding="UTF-8" standalone="no"?>
<!DOCTYPE svg PUBLIC "-//W3C//DTD SVG 1.1//EN"
 "http://www.w3.org/Graphics/SVG/1.1/DTD/svg11.dtd">
<!-- Generated by graphviz version 2.34.0 (20131106.1252)
 -->
<!-- Title: g Pages: 1 -->
<svg width="258pt" height="370pt"
 viewBox="0.00 0.00 258.00 370.00" xmlns="http://www.w3.org/2000/svg" xmlns:xlink="http://www.w3.org/1999/xlink">
<g id="graph0" class="graph" transform="scale(1 1) rotate(0) translate(4 366)">
<title>g</title>
<polygon fill="white" stroke="white" points="-4,4 -4,-366 254,-366 254,4 -4,4"/>
<!-- N0 -->
<g id="node1" class="node"><title>N0</title>
<path fill="#ffffff" stroke="#2e3436" stroke-width="1.5" d="M110,-322.694C110,-322.694 140,-322.694 140,-322.694 146,-322.694 152,-328.694 152,-334.694 152,-334.694 152,-349.306 152,-349.306 152,-355.306 146,-361.306 140,-361.306 140,-361.306 110,-361.306 110,-361.306 104,-361.306 98,-355.306 98,-349.306 98,-349.306 98,-334.694 98,-334.694 98,-328.694 104,-322.694 110,-322.694"/>
<text text-anchor="middle" x="124.789" y="-349.306" font-family="FreeSans" font-size="8.00" fill="#1c2021">Node[0]</text>
<polyline fill="none" stroke="#2e3436" stroke-width="1.5" points="98,-342 151.578,-342 "/>
<text text-anchor="middle" x="124.789" y="-330" font-family="FreeSans" font-size="8.00" fill="#1c2021"> </text>
</g>
<!-- N46 -->
<g id="node2" class="node"><title>N46</title>
<path fill="#ffffff" stroke="#2e3436" stroke-width="1.5" d="M100.342,-234.694C100.342,-234.694 149.658,-234.694 149.658,-234.694 155.658,-234.694 161.658,-240.694 161.658,-246.694 161.658,-246.694 161.658,-261.306 161.658,-261.306 161.658,-267.306 155.658,-273.306 149.658,-273.306 149.658,-273.306 100.342,-273.306 100.342,-273.306 94.3418,-273.306 88.3418,-267.306 88.3418,-261.306 88.3418,-261.306 88.3418,-246.694 88.3418,-246.694 88.3418,-240.694 94.3418,-234.694 100.342,-234.694"/>
<text text-anchor="middle" x="125" y="-261.306" font-family="FreeSans" font-size="8.00" fill="#1c2021">Node[46]</text>
<polyline fill="none" stroke="#2e3436" stroke-width="1.5" points="88.3418,-254 161.658,-254 "/>
<text text-anchor="start" x="96.3418" y="-242" font-family="FreeSans" font-size="8.00" fill="#1c2021">type = &#39;spatial&#39;</text>
</g>
<!-- N0&#45;&gt;N46 -->
<g id="edge1" class="edge"><title>N0&#45;&gt;N46</title>
<path fill="none" stroke="#2e3436" stroke-width="2" d="M125,-322.339C125,-310.198 125,-294.197 125,-280.839"/>
<polygon fill="#2e3436" stroke="#2e3436" points="125,-273.329 128.375,-280.829 125.5,-277.079 125.5,-280.829 125,-280.829 124.5,-280.829 124.5,-277.079 121.625,-280.829 125,-273.329 125,-273.329"/>
<text text-anchor="middle" x="140.699" y="-295.653" font-family="FreeSans" font-size="8.00" fill="#2e3436">SPATIAL</text>
</g>
<!-- N47 -->
<g id="node3" class="node"><title>N47</title>
<path fill="#ffffff" stroke="#2e3436" stroke-width="1.5" d="M11.043,-101.081C11.043,-101.081 238.957,-101.081 238.957,-101.081 244.957,-101.081 250.957,-107.081 250.957,-113.081 250.957,-113.081 250.957,-172.919 250.957,-172.919 250.957,-178.919 244.957,-184.919 238.957,-184.919 238.957,-184.919 11.043,-184.919 11.043,-184.919 5.04297,-184.919 -0.957031,-178.919 -0.957031,-172.919 -0.957031,-172.919 -0.957031,-113.081 -0.957031,-113.081 -0.957031,-107.081 5.04297,-101.081 11.043,-101.081"/>
<text text-anchor="middle" x="125" y="-172.919" font-family="FreeSans" font-size="8.00" fill="#1c2021">Node[47]</text>
<polyline fill="none" stroke="#2e3436" stroke-width="1.5" points="-0.957031,-165.613 250.957,-165.613 "/>
<text text-anchor="start" x="7.04297" y="-153.613" font-family="FreeSans" font-size="8.00" fill="#1c2021">layer = &#39;geom&#39;</text>
<text text-anchor="start" x="7.04297" y="-142.306" font-family="FreeSans" font-size="8.00" fill="#1c2021">ctime = 1384521977841</text>
<text text-anchor="start" x="7.04297" y="-131" font-family="FreeSans" font-size="8.00" fill="#1c2021">geomencoder = &#39;org.neo4j.gis.spatial.WKTGeometryEncoder&#39;</text>
<text text-anchor="start" x="7.04297" y="-119.694" font-family="FreeSans" font-size="8.00" fill="#1c2021">layer_class = &#39;org.neo4j.gis.spatial.EditableLayerImpl&#39;</text>
<text text-anchor="start" x="7.04297" y="-108.387" font-family="FreeSans" font-size="8.00" fill="#1c2021">geomencoder_config = &#39;wkt&#39;</text>
</g>
<!-- N46&#45;&gt;N47 -->
<g id="edge2" class="edge"><title>N46&#45;&gt;N47</title>
<path fill="none" stroke="#4e9a06" stroke-width="2" d="M125,-234.51C125,-223.027 125,-207.685 125,-192.898"/>
<polygon fill="#4e9a06" stroke="#4e9a06" points="125,-185.24 128.375,-192.74 125.5,-188.99 125.5,-192.74 125,-192.74 124.5,-192.74 124.5,-188.99 121.625,-192.74 125,-185.24 125,-185.24"/>
<text text-anchor="middle" x="137.082" y="-207.653" font-family="FreeSans" font-size="8.00" fill="#4e9a06">LAYER</text>
</g>
<!-- N48 -->
<g id="node4" class="node"><title>N48</title>
<path fill="#ffffff" stroke="#2e3436" stroke-width="1.5" d="M52,-6.69375C52,-6.69375 82,-6.69375 82,-6.69375 88,-6.69375 94,-12.6938 94,-18.6938 94,-18.6938 94,-33.3063 94,-33.3063 94,-39.3062 88,-45.3062 82,-45.3062 82,-45.3062 52,-45.3062 52,-45.3062 46,-45.3062 40,-39.3062 40,-33.3062 40,-33.3062 40,-18.6937 40,-18.6937 40,-12.6938 46,-6.69375 52,-6.69375"/>
<text text-anchor="middle" x="66.8184" y="-33.3063" font-family="FreeSans" font-size="8.00" fill="#1c2021">Node[48]</text>
<polyline fill="none" stroke="#2e3436" stroke-width="1.5" points="40,-26 93.6367,-26 "/>
<text text-anchor="middle" x="66.8184" y="-14" font-family="FreeSans" font-size="8.00" fill="#1c2021"> </text>
</g>
<!-- N47&#45;&gt;N48 -->
<g id="edge3" class="edge"><title>N47&#45;&gt;N48</title>
<path fill="none" stroke="#a40000" stroke-width="2" d="M104.224,-100.807C96.0866,-84.6717 87.0067,-66.6685 79.8519,-52.4823"/>
<polygon fill="#a40000" stroke="#a40000" points="76.3011,-45.4418 82.692,-50.6185 78.4363,-48.5649 80.125,-51.9132 79.6785,-52.1384 79.2321,-52.3635 77.5434,-49.0153 76.6651,-53.6582 76.3011,-45.4418 76.3011,-45.4418"/>
<text text-anchor="middle" x="120.197" y="-73.6531" font-family="FreeSans" font-size="8.00" fill="#a40000">RTREE_ROOT</text>
</g>
<!-- N49 -->
<g id="node5" class="node"><title>N49</title>
<path fill="#ffffff" stroke="#2e3436" stroke-width="1.5" d="M135.025,-1.04062C135.025,-1.04062 232.975,-1.04062 232.975,-1.04062 238.975,-1.04062 244.975,-7.04062 244.975,-13.0406 244.975,-13.0406 244.975,-38.9594 244.975,-38.9594 244.975,-44.9594 238.975,-50.9594 232.975,-50.9594 232.975,-50.9594 135.025,-50.9594 135.025,-50.9594 129.025,-50.9594 123.025,-44.9594 123.025,-38.9594 123.025,-38.9594 123.025,-13.0406 123.025,-13.0406 123.025,-7.04062 129.025,-1.04062 135.025,-1.04062"/>
<text text-anchor="middle" x="184" y="-38.9594" font-family="FreeSans" font-size="8.00" fill="#1c2021">Node[49]</text>
<polyline fill="none" stroke="#2e3436" stroke-width="1.5" points="123.025,-31.6531 244.975,-31.6531 "/>
<text text-anchor="start" x="131.025" y="-19.6531" font-family="FreeSans" font-size="8.00" fill="#1c2021">maxNodeReferences = 100</text>
<text text-anchor="start" x="131.025" y="-8.34688" font-family="FreeSans" font-size="8.00" fill="#1c2021">totalGeometryCount = 0</text>
</g>
<!-- N47&#45;&gt;N49 -->
<g id="edge4" class="edge"><title>N47&#45;&gt;N49</title>
<path fill="none" stroke="#204a87" stroke-width="2" d="M146.134,-100.807C153.332,-86.7774 161.254,-71.3356 167.984,-58.2186"/>
<polygon fill="#204a87" stroke="#204a87" points="171.587,-51.1943 171.167,-59.408 170.32,-54.7591 168.609,-58.0956 168.164,-57.8673 167.719,-57.6391 169.431,-54.3026 165.161,-56.3267 171.587,-51.1943 171.587,-51.1943"/>
<text text-anchor="middle" x="197.871" y="-73.6531" font-family="FreeSans" font-size="8.00" fill="#204a87">RTREE_METADATA</text>
</g>
</g>
</svg>
