<?xml version="1.0" encoding="UTF-8" standalone="no"?>
<!DOCTYPE svg PUBLIC "-//W3C//DTD SVG 1.1//EN"
 "http://www.w3.org/Graphics/SVG/1.1/DTD/svg11.dtd">
<!-- Generated by graphviz version 2.34.0 (20131106.1252)
 -->
<!-- Title: g Pages: 1 -->
<svg width="338pt" height="480pt"
 viewBox="0.00 0.00 338.00 480.00" xmlns="http://www.w3.org/2000/svg" xmlns:xlink="http://www.w3.org/1999/xlink">
<g id="graph0" class="graph" transform="scale(1 1) rotate(0) translate(4 476)">
<title>g</title>
<polygon fill="white" stroke="white" points="-4,4 -4,-476 334,-476 334,4 -4,4"/>
<!-- N0 -->
<g id="node1" class="node"><title>N0</title>
<path fill="#ffffff" stroke="#2e3436" stroke-width="1.5" d="M190,-432.694C190,-432.694 220,-432.694 220,-432.694 226,-432.694 232,-438.694 232,-444.694 232,-444.694 232,-459.306 232,-459.306 232,-465.306 226,-471.306 220,-471.306 220,-471.306 190,-471.306 190,-471.306 184,-471.306 178,-465.306 178,-459.306 178,-459.306 178,-444.694 178,-444.694 178,-438.694 184,-432.694 190,-432.694"/>
<text text-anchor="middle" x="204.789" y="-459.306" font-family="FreeSans" font-size="8.00" fill="#1c2021">Node[0]</text>
<polyline fill="none" stroke="#2e3436" stroke-width="1.5" points="178,-452 231.578,-452 "/>
<text text-anchor="middle" x="204.789" y="-440" font-family="FreeSans" font-size="8.00" fill="#1c2021"> </text>
</g>
<!-- N1 -->
<g id="node2" class="node"><title>N1</title>
<path fill="#ffffff" stroke="#2e3436" stroke-width="1.5" d="M180.342,-344.694C180.342,-344.694 229.658,-344.694 229.658,-344.694 235.658,-344.694 241.658,-350.694 241.658,-356.694 241.658,-356.694 241.658,-371.306 241.658,-371.306 241.658,-377.306 235.658,-383.306 229.658,-383.306 229.658,-383.306 180.342,-383.306 180.342,-383.306 174.342,-383.306 168.342,-377.306 168.342,-371.306 168.342,-371.306 168.342,-356.694 168.342,-356.694 168.342,-350.694 174.342,-344.694 180.342,-344.694"/>
<text text-anchor="middle" x="205" y="-371.306" font-family="FreeSans" font-size="8.00" fill="#1c2021">Node[1]</text>
<polyline fill="none" stroke="#2e3436" stroke-width="1.5" points="168.342,-364 241.658,-364 "/>
<text text-anchor="start" x="176.342" y="-352" font-family="FreeSans" font-size="8.00" fill="#1c2021">type = &#39;spatial&#39;</text>
</g>
<!-- N0&#45;&gt;N1 -->
<g id="edge1" class="edge"><title>N0&#45;&gt;N1</title>
<path fill="none" stroke="#2e3436" stroke-width="2" d="M205,-432.339C205,-420.198 205,-404.197 205,-390.839"/>
<polygon fill="#2e3436" stroke="#2e3436" points="205,-383.329 208.375,-390.829 205.5,-387.079 205.5,-390.829 205,-390.829 204.5,-390.829 204.5,-387.079 201.625,-390.829 205,-383.329 205,-383.329"/>
<text text-anchor="middle" x="220.699" y="-405.653" font-family="FreeSans" font-size="8.00" fill="#2e3436">SPATIAL</text>
</g>
<!-- N2 -->
<g id="node3" class="node"><title>N2</title>
<path fill="#ffffff" stroke="#2e3436" stroke-width="1.5" d="M91.043,-211.081C91.043,-211.081 318.957,-211.081 318.957,-211.081 324.957,-211.081 330.957,-217.081 330.957,-223.081 330.957,-223.081 330.957,-282.919 330.957,-282.919 330.957,-288.919 324.957,-294.919 318.957,-294.919 318.957,-294.919 91.043,-294.919 91.043,-294.919 85.043,-294.919 79.043,-288.919 79.043,-282.919 79.043,-282.919 79.043,-223.081 79.043,-223.081 79.043,-217.081 85.043,-211.081 91.043,-211.081"/>
<text text-anchor="middle" x="205" y="-282.919" font-family="FreeSans" font-size="8.00" fill="#1c2021">Node[2]</text>
<polyline fill="none" stroke="#2e3436" stroke-width="1.5" points="79.043,-275.613 330.957,-275.613 "/>
<text text-anchor="start" x="87.043" y="-263.613" font-family="FreeSans" font-size="8.00" fill="#1c2021">layer = &#39;geom&#39;</text>
<text text-anchor="start" x="87.043" y="-252.306" font-family="FreeSans" font-size="8.00" fill="#1c2021">ctime = 1384521976347</text>
<text text-anchor="start" x="87.043" y="-241" font-family="FreeSans" font-size="8.00" fill="#1c2021">geomencoder = &#39;org.neo4j.gis.spatial.WKTGeometryEncoder&#39;</text>
<text text-anchor="start" x="87.043" y="-229.694" font-family="FreeSans" font-size="8.00" fill="#1c2021">layer_class = &#39;org.neo4j.gis.spatial.EditableLayerImpl&#39;</text>
<text text-anchor="start" x="87.043" y="-218.387" font-family="FreeSans" font-size="8.00" fill="#1c2021">geomencoder_config = &#39;wkt&#39;</text>
</g>
<!-- N1&#45;&gt;N2 -->
<g id="edge2" class="edge"><title>N1&#45;&gt;N2</title>
<path fill="none" stroke="#4e9a06" stroke-width="2" d="M205,-344.51C205,-333.027 205,-317.685 205,-302.898"/>
<polygon fill="#4e9a06" stroke="#4e9a06" points="205,-295.24 208.375,-302.74 205.5,-298.99 205.5,-302.74 205,-302.74 204.5,-302.74 204.5,-298.99 201.625,-302.74 205,-295.24 205,-295.24"/>
<text text-anchor="middle" x="217.082" y="-317.653" font-family="FreeSans" font-size="8.00" fill="#4e9a06">LAYER</text>
</g>
<!-- N3 -->
<g id="node4" class="node"><title>N3</title>
<path fill="#ffffff" stroke="#2e3436" stroke-width="1.5" d="M31.7344,-116.694C31.7344,-116.694 146.266,-116.694 146.266,-116.694 152.266,-116.694 158.266,-122.694 158.266,-128.694 158.266,-128.694 158.266,-143.306 158.266,-143.306 158.266,-149.306 152.266,-155.306 146.266,-155.306 146.266,-155.306 31.7344,-155.306 31.7344,-155.306 25.7344,-155.306 19.7344,-149.306 19.7344,-143.306 19.7344,-143.306 19.7344,-128.694 19.7344,-128.694 19.7344,-122.694 25.7344,-116.694 31.7344,-116.694"/>
<text text-anchor="middle" x="89" y="-143.306" font-family="FreeSans" font-size="8.00" fill="#1c2021">Node[3]</text>
<polyline fill="none" stroke="#2e3436" stroke-width="1.5" points="19.7344,-136 158.266,-136 "/>
<text text-anchor="start" x="27.7344" y="-124" font-family="FreeSans" font-size="8.00" fill="#1c2021">bbox = [15.2, 60.1, 15.3, 60.1]</text>
</g>
<!-- N2&#45;&gt;N3 -->
<g id="edge3" class="edge"><title>N2&#45;&gt;N3</title>
<path fill="none" stroke="#a40000" stroke-width="2" d="M163.449,-210.807C146.576,-194.08 127.678,-175.345 113.144,-160.936"/>
<polygon fill="#a40000" stroke="#a40000" points="107.602,-155.442 115.305,-158.325 110.617,-157.727 113.28,-160.367 112.928,-160.722 112.576,-161.077 109.913,-158.437 110.552,-163.119 107.602,-155.442 107.602,-155.442"/>
<text text-anchor="middle" x="169.197" y="-183.653" font-family="FreeSans" font-size="8.00" fill="#a40000">RTREE_ROOT</text>
</g>
<!-- N4 -->
<g id="node5" class="node"><title>N4</title>
<path fill="#ffffff" stroke="#2e3436" stroke-width="1.5" d="M199.025,-111.041C199.025,-111.041 296.975,-111.041 296.975,-111.041 302.975,-111.041 308.975,-117.041 308.975,-123.041 308.975,-123.041 308.975,-148.959 308.975,-148.959 308.975,-154.959 302.975,-160.959 296.975,-160.959 296.975,-160.959 199.025,-160.959 199.025,-160.959 193.025,-160.959 187.025,-154.959 187.025,-148.959 187.025,-148.959 187.025,-123.041 187.025,-123.041 187.025,-117.041 193.025,-111.041 199.025,-111.041"/>
<text text-anchor="middle" x="248" y="-148.959" font-family="FreeSans" font-size="8.00" fill="#1c2021">Node[4]</text>
<polyline fill="none" stroke="#2e3436" stroke-width="1.5" points="187.025,-141.653 308.975,-141.653 "/>
<text text-anchor="start" x="195.025" y="-129.653" font-family="FreeSans" font-size="8.00" fill="#1c2021">maxNodeReferences = 100</text>
<text text-anchor="start" x="195.025" y="-118.347" font-family="FreeSans" font-size="8.00" fill="#1c2021">totalGeometryCount = 0</text>
</g>
<!-- N2&#45;&gt;N4 -->
<g id="edge4" class="edge"><title>N2&#45;&gt;N4</title>
<path fill="none" stroke="#204a87" stroke-width="2" d="M220.403,-210.807C225.6,-196.907 231.315,-181.621 236.191,-168.584"/>
<polygon fill="#204a87" stroke="#204a87" points="238.953,-161.194 239.488,-169.401 238.108,-164.882 236.795,-168.394 236.327,-168.219 235.858,-168.044 237.172,-164.532 233.165,-167.037 238.953,-161.194 238.953,-161.194"/>
<text text-anchor="middle" x="266.871" y="-183.653" font-family="FreeSans" font-size="8.00" fill="#204a87">RTREE_METADATA</text>
</g>
<!-- N5 -->
<g id="node6" class="node"><title>N5</title>
<path fill="#ffffff" stroke="#2e3436" stroke-width="1.5" d="M11.5781,-0.3875C11.5781,-0.3875 166.422,-0.3875 166.422,-0.3875 172.422,-0.3875 178.422,-6.3875 178.422,-12.3875 178.422,-12.3875 178.422,-49.6125 178.422,-49.6125 178.422,-55.6125 172.422,-61.6125 166.422,-61.6125 166.422,-61.6125 11.5781,-61.6125 11.5781,-61.6125 5.57812,-61.6125 -0.421875,-55.6125 -0.421875,-49.6125 -0.421875,-49.6125 -0.421875,-12.3875 -0.421875,-12.3875 -0.421875,-6.3875 5.57813,-0.3875 11.5781,-0.3875"/>
<text text-anchor="middle" x="89" y="-49.6125" font-family="FreeSans" font-size="8.00" fill="#1c2021">Node[5]</text>
<polyline fill="none" stroke="#2e3436" stroke-width="1.5" points="-0.421875,-42.3063 178.422,-42.3063 "/>
<text text-anchor="start" x="7.57812" y="-30.3063" font-family="FreeSans" font-size="8.00" fill="#1c2021">gtype = 2</text>
<text text-anchor="start" x="7.57812" y="-19" font-family="FreeSans" font-size="8.00" fill="#1c2021">bbox = [15.2, 60.1, 15.3, 60.1]</text>
<text text-anchor="start" x="7.57812" y="-7.69375" font-family="FreeSans" font-size="8.00" fill="#1c2021">wkt = &#39;LINESTRING (15.2 60.1, 15.3 60.1)&#39;</text>
</g>
<!-- N3&#45;&gt;N5 -->
<g id="edge5" class="edge"><title>N3&#45;&gt;N5</title>
<path fill="none" stroke="#8f5902" stroke-width="2" d="M89,-116.586C89,-103.557 89,-85.6297 89,-69.6314"/>
<polygon fill="#8f5902" stroke="#8f5902" points="89,-61.9627 92.3751,-69.4626 89.5,-65.7127 89.5001,-69.4627 89.0001,-69.4627 88.5001,-69.4627 88.5,-65.7127 85.6251,-69.4627 89,-61.9627 89,-61.9627"/>
<text text-anchor="middle" x="124.521" y="-83.6531" font-family="FreeSans" font-size="8.00" fill="#8f5902">RTREE_REFERENCE</text>
</g>
</g>
</svg>
