<?xml version="1.0" encoding="UTF-8" standalone="no"?>
<!DOCTYPE svg PUBLIC "-//W3C//DTD SVG 1.1//EN"
 "http://www.w3.org/Graphics/SVG/1.1/DTD/svg11.dtd">
<!-- Generated by graphviz version 2.30.1 (20130318.1259)
 -->
<!-- Title: g Pages: 1 -->
<svg width="62pt" height="48pt"
 viewBox="0.00 0.00 62.00 48.00" xmlns="http://www.w3.org/2000/svg" xmlns:xlink="http://www.w3.org/1999/xlink">
<g id="graph0" class="graph" transform="scale(1 1) rotate(0) translate(4 44)">
<title>g</title>
<polygon fill="white" stroke="white" points="-4,5 -4,-44 59,-44 59,5 -4,5"/>
<!-- N0 -->
<g id="node1" class="node"><title>N0</title>
<path fill="#ffffff" stroke="#2e3436" stroke-width="1.5" d="M12,-0.69375C12,-0.69375 42,-0.69375 42,-0.69375 48,-0.69375 54,-6.69375 54,-12.6938 54,-12.6938 54,-27.3063 54,-27.3063 54,-33.3062 48,-39.3062 42,-39.3062 42,-39.3062 12,-39.3062 12,-39.3062 6,-39.3062 0,-33.3062 0,-27.3062 0,-27.3062 0,-12.6937 0,-12.6937 0,-6.69375 6,-0.69375 12,-0.69375"/>
<text text-anchor="middle" x="26.7891" y="-27.3062" font-family="FreeSans" font-size="8.00" fill="#1c2021">Node[0]</text>
<polyline fill="none" stroke="#2e3436" stroke-width="1.5" points="0,-20 53.5781,-20 "/>
<text text-anchor="middle" x="26.7891" y="-8" font-family="FreeSans" font-size="8.00" fill="#1c2021"> </text>
</g>
</g>
</svg>
